<svg id="Layer_1" data-name="Layer 1" xmlns="http://www.w3.org/2000/svg" viewBox="0 0 200 200"><defs><style>.cls-1{fill:#21a1e1;}</style></defs><path class="cls-1" d="M67.7,20.34c14.46,0,27.78,4.35,27.78,20.61,0,9.22-5.25,15.23-12.81,18.43,10.63,2.18,17,9.09,17,20.35,0,16.65-11.52,25.73-32.77,25.73h-28V20.34Zm11.77,23C79.47,34,73.33,32.12,65,32.12H54.51v23h9.6C75,55.16,79.47,50.17,79.47,43.38Zm3.72,36.48c0-8.57-5.89-13.31-16-13.31H54.51V93.43H66.67C79.22,93.43,83.19,87.67,83.19,79.86Z"/><path class="cls-1" d="M109.17,73.21c0-26.63,16.64-34,29.82-34,9.47,0,27.91,2.94,27.91,32.25,0,24.58-13.06,36-30,36C119.79,107.38,109.17,96.38,109.17,73.21Zm42.11.38c0-14.34-3.33-23.17-13.06-23.17-9.34,0-13.44,8.7-13.44,21,0,11.91,1.8,24.71,13.19,24.71C147.31,96.12,151.28,86.9,151.28,73.59Z"/><path class="cls-1" d="M100.75,179.25A61.32,61.32,0,0,1,39.5,118a5.5,5.5,0,0,1,11,0A50.25,50.25,0,0,0,151,118a5.5,5.5,0,0,1,11,0A61.32,61.32,0,0,1,100.75,179.25Z"/></svg>